<?xml version="1.0" encoding="iso-8859-1"?>
<!-- Generator: Adobe Illustrator 19.0.0, SVG Export Plug-In . SVG Version: 6.00 Build 0)  -->
<svg version="1.1" id="Layer_1" xmlns="http://www.w3.org/2000/svg" xmlns:xlink="http://www.w3.org/1999/xlink" x="0px" y="0px"
	 viewBox="0 0 508 508" style="enable-background:new 0 0 508 508;" xml:space="preserve">
<circle style="fill:#324A5E;" cx="254" cy="254" r="254"/>
<path style="fill:#FFFFFF;" d="M390.5,398.7H116.3c-4.2,0-7.6-3.4-7.6-7.6V116.9c0-4.2,3.4-7.6,7.6-7.6s7.6,3.4,7.6,7.6v266.6h266.6
	c4.2,0,7.6,3.4,7.6,7.6S394.7,398.7,390.5,398.7z"/>
<rect x="140" y="289.5" style="fill:#FF7058;" width="31" height="73.3"/>
<rect x="194.8" y="263.4" style="fill:#FFD05B;" width="31" height="99.4"/>
<rect x="249.7" y="243.8" style="fill:#FF7058;" width="31" height="118.9"/>
<rect x="304.6" y="263.4" style="fill:#FFD05B;" width="31" height="99.4"/>
<rect x="359.5" y="224.7" style="fill:#FF7058;" width="31" height="138"/>
<path style="fill:#84DBFF;" d="M407.2,135.7l-50.4,11.2l16.5,16.5l-52.7,52.7l-66.9-66.9c-2.2-2.2-5.8-2.2-8.1,0l-94.2,94.2
	c-2.2,2.2-2.2,5.9,0,8.1c1.1,1.1,2.6,1.7,4,1.7c1.5,0,2.9-0.6,4-1.7l90.2-90.2l66.9,66.9c2.2,2.2,5.8,2.2,8.1,0l56.8-56.8l14.7,14.7
	L407.2,135.7z"/>
<g>
</g>
<g>
</g>
<g>
</g>
<g>
</g>
<g>
</g>
<g>
</g>
<g>
</g>
<g>
</g>
<g>
</g>
<g>
</g>
<g>
</g>
<g>
</g>
<g>
</g>
<g>
</g>
<g>
</g>
</svg>
